<svg id="children" data-name="Слой 1" xmlns="http://www.w3.org/2000/svg" viewBox="0 0 66 66"><path d="M1 33a32 32 0 1 1 31.86 32A32.1 32.1 0 0 1 1 33zm43.28-15c-.2-.72-.36-1.31-.53-1.9a38.38 38.38 0 0 0-5.9-12.55 3.51 3.51 0 0 0-2.18-1.38 30.6 30.6 0 0 0-24.29 8.64c-.37.35-.67.79-1.25 1.47a45.15 45.15 0 0 1 32 7.27c-1.78 2.41-1.4 4.79-.34 7.13-3.68 1.4-7.18 2.64-10.61 4.06-9 3.72-17.48 8.28-24.85 14.75A1.66 1.66 0 0 0 5.81 48c5 8.6 12.38 13.88 22.21 15.59a4 4 0 0 0 2.7-.62c7.85-5.63 11.9-13.62 13.79-22.84.66-3.24.89-6.57 1.32-9.91a6.33 6.33 0 0 0 6.71-1.31 51.69 51.69 0 0 1 9.14 15.79 31.67 31.67 0 0 0 1-20.73 1.64 1.64 0 0 0-2.13-1.39c-2.32.31-4.65.56-6.94.83-2.5-4.63-5.09-6.16-9.33-5.41z"/><path d="M42 23.06a4.13 4.13 0 0 1 4.27-4.18 6.85 6.85 0 0 1 6.37 6.52 4.14 4.14 0 0 1-4.19 4.07A6.77 6.77 0 0 1 42 23.06z"/></svg>