<svg id="logo" data-name="logo" xmlns="http://www.w3.org/2000/svg" viewBox="0 0 200 200"><path d="M100.29 200c-14.87-.25-26.9-6-36.68-16.88a13.41 13.41 0 0 0-6.52-3.56c-13.53-3.34-27.2-6.12-40.65-9.74-4-1.07-7.79-3.81-11-6.56-4.53-3.85-4.53-8.63 0-12.39 3.4-2.81 7.34-5.53 11.5-6.75 11.14-3.26 22.49-5.83 33.82-8.36 3.41-.76 5.7-1.71 7.57-5.15 9-16.45 23.14-25.2 41.82-25.15 18.46.05 32.54 8.71 41.43 25 2 3.57 4.34 4.57 8 5.39 11.81 2.67 23.58 5.57 35.17 9 3.81 1.14 7.36 3.89 10.4 6.6 3.81 3.39 3.83 8 0 11.34-3.35 2.87-7.22 5.83-11.35 7-13.6 3.69-27.44 6.47-41.14 9.82a12.45 12.45 0 0 0-6.11 3.39c-9.78 11-21.81 16.7-36.26 17zM143 172.88c3-.5 5.24-.56 7.23-1.24 8.46-2.88 17.23-5.21 25.17-9.18 6.7-3.35 6.53-9.1.37-13.34-8.94-6.14-19.32-8.15-30.29-10.06 3.17 11.76 2.23 22.52-2.48 33.82zm-88.46-33.25L53.2 138c-9.29 3.43-18.92 6.17-27.77 10.51-7.71 3.78-7.49 9.86-.23 14.45 9.46 6 20.24 7.91 31.78 10-4.43-11.32-5.69-22.17-2.44-33.33zm66.46 8.88l2.27.1c1.62-2.11 4.18-4 4.62-6.38.61-3.24-1.82-5.67-5.31-5.77s-6.1 2.07-5.72 5.37c.27 2.35 2.68 4.46 4.14 6.68zm-30.37-23.75c-2.13-1.12-3.33-2.26-4.45-2.18-.87.06-2.47 1.92-2.28 2.47.38 1.11 1.72 2.53 2.75 2.61s2.08-1.42 3.98-2.9zM143.15 73.41a9.9 9.9 0 0 1 10.41-9.73 10.09 10.09 0 0 1 9.7 10A10.22 10.22 0 0 1 153 83.78a10.08 10.08 0 0 1-9.85-10.37z"/></svg>