<svg id="lowprice" data-name="Слой 1" xmlns="http://www.w3.org/2000/svg" viewBox="0 0 66 60.09"><path d="M65 2.85c-3.69 4.8-7.41 9.58-11 14.43-.31.41-.09 1.41.16 2 7.34 18.12-3.55 36.55-22.95 38.78-13.71 1.57-27-8.44-29.68-22.33-.12-.64-.34-1.27-.51-1.91v-7a3.8 3.8 0 0 0 .39-.82C5.36 5.44 27.14-3.65 44.73 7.84A3.67 3.67 0 0 0 47.6 8c5-1.85 9.88-3.89 14.83-5.8A11.64 11.64 0 0 1 65 1.85zm-54.61 8.8a26.5 26.5 0 0 0-7.93 17.92h11.4l2.26-14.07zM14 31.48H2.47c.54 7.1 3 13 8 17.78l5.73-3.8zm33 17.76a26.12 26.12 0 0 0 8-17.86H43.54l-2.21 14zm-4-29.3l4.68 2.76L61.44 4.65l-.31-.42L35 14.65c2.21 2.41 4.27 2.59 6.62.94a31.33 31.33 0 0 1 4.18-2.22c1.12-.56 2.27-1.05 3.41-1.57l.57.7zm-27.48 9.68h12.33V18.81l-10.4-2.28zm12.36 1.9H15.4l2 13 10.49-2.3zm1.71-.12v10.75l10.5 2.29 1.88-13zm0-1.81h12.16L41.14 23l-.65-.11-1.81 2.59-1-.35v-5c.05-1.88-.95-2.54-2.65-2.34s-3.58.51-5.44.79zm25.73.09l-2.64-10.86c-.83 1-1.16 1.36-1.46 1.75-3.11 4-3.11 4-7.56 1.62-.27-.15-.58-.24-1.13-.46l.74 7.94zM27.86 4.19c-5.58 1.6-7.62 5.86-9.75 10.85l9.75 2.19zm-9.41 41.66c1.46 5.92 5.62 10.38 9.35 10.44V43.78zm20.9 0l-9.73-2v12.9c5.49-1.55 7.54-5.75 9.73-10.88zM37.46 12c-.82-3.73-4.46-7.15-7.85-7.41v12.33l4-.53-1.65-1.88zM22.2 5.14l-.13-.49L11 10.34 16.6 14zm-.2 51.1l.14-.51-5.58-8.94-5.51 3.82zm13.22-.5l.15.51 11-5.68-5.56-3.74zm8.6-46.16l.18-.8-8.57-3.92-.24.5 4.34 6zm-4.24 12.17l4.36-5.12c-5.09 1.82-5.09 1.82-4.36 5.12z"/></svg>