<svg id="original" data-name="Слой 1" xmlns="http://www.w3.org/2000/svg" viewBox="0 0 66 66"><path d="M18.51 32.1c-5.13-.87-7.51-4.47-7-10.21a15.19 15.19 0 0 1 2.95-8.09c2.3-3 5.32-3.74 8.46-2.07l1 .53a2.37 2.37 0 0 0 .09-.59C23 5.73 26.24 2.13 31 1.21a10 10 0 0 1 7.19 1.2c2.87 1.69 4.18 4.43 3.89 8.15 0 .52-.06 1-.09 1.58a23.59 23.59 0 0 1 3.33-1.2A5.64 5.64 0 0 1 50.88 13a14.65 14.65 0 0 1 3.41 12.81c-.73 4-3.23 5.83-6.76 6.25.63.9 1.2 1.61 1.68 2.41a8.38 8.38 0 0 1 .84 6.69C48.79 46 43.92 50.08 39.6 50c-3.21-.06-5.18-2.15-6.52-5.55-.26.45-.46.74-.62 1.06-1.71 3.55-4.09 5-7.51 4.33-4.08-.85-7.08-3.55-8.76-8a8.33 8.33 0 0 1 1.12-8.19c.35-.45.69-.91 1.2-1.55zm13.7-1.37a17.61 17.61 0 0 0-1.92-1.21 1.3 1.3 0 0 0-1.15-.05 27.35 27.35 0 0 0-8.22 9.34 14.48 14.48 0 0 0-1.35 4.4c-.39 2.91 1.51 4.62 3.85 3.5a8.79 8.79 0 0 0 2.83-2.22c3.23-3.82 4.75-8.7 5.96-13.76zm1.67.28c1.16 4.77 2.64 9.64 5.87 13.45a9.34 9.34 0 0 0 3.25 2.4c1.75.78 3.35-.43 3.39-2.6a11.7 11.7 0 0 0-.82-4.36c-1.41-3.59-3.88-6.19-6.49-8.6-1.55-1.43-3.08-3.35-5.2-.3zm3.42-4c4.58.14 9-.09 13-2.74 2.16-1.42 3.22-3.45 2.8-5.08-.45-1.81-2.21-2.73-4.82-2.48-3.67.36-6.74 2.42-9.75 4.69-1.09.82-2.07 1.59-1.3 3.42a7.05 7.05 0 0 1 .07 2.23zm-8.75 0c.16-1.26.36-2.39.43-3.53a1.58 1.58 0 0 0-.43-1.11C25.71 20 22.7 17.82 19.19 17a9.13 9.13 0 0 0-4 0c-2.35.54-3.14 3.05-1.6 5.15a10.18 10.18 0 0 0 3.19 2.8c3.75 2.05 7.8 2.28 11.77 2.05zm2.37-6.43h4.16c1.28-4.57 2.22-9.25 1.26-14.15-.52-2.68-1.88-4.35-3.34-4.33s-2.8 1.67-3.33 4.4c-.96 4.9-.03 9.58 1.25 14.1zm2.68 10.2l-.47-.4c-.27.41-.77.81-.78 1.22q-.11 4.7 0 9.4a14.08 14.08 0 0 0 .51 2.55c1.41-4.23 1.23-8.48.75-12.74zm-4.14-2c-.59-1.41-.6-1.46-1.52-1.2a34.89 34.89 0 0 0-4.32 1.43c-1.55.68-3 1.6-4.52 2.42l.2.58c3.59.06 6.84-1.44 10.17-3.18zm7-.5l.2.57c3.21 1.63 6.43 3.2 10.08 3a1.33 1.33 0 0 0-.59-.75c-2.79-1.22-5.58-2.44-8.41-3.55-.31-.09-.84.52-1.28.79zm-5.88-7.12c-1.73-3.27-3.47-6.29-6.11-8.39l-.5.41 5.25 9.47zm11.06-8.53a26 26 0 0 0-6.21 8.54l1.08 1.16c2.42-2.59 4.72-6.91 5.14-9.65z"/><path d="M53.57 42.87c-1.74-1.4-1.9-2.48-.73-4.8-2.17-1.11-2.62-2.32-1.73-4.69.27 2 2 3.19 4.41 2.85.45-.06.82-.82 1.37-1.41-2.18-1.07-3.75-2.82-5.89-1.37.66-2.23 1.54-2.79 3.53-2.25.64-2.82 1.41-3.58 3.52-3.47 1.82.09 2.53.95 2.85 3.45 2.17-.48 3.18.16 3.81 2.41s.09 3.42-1.92 4.52c1.1 2.13.88 3.64-.73 5s-2.91 1.07-4-.52a9.3 9.3 0 0 1-2.64 1.25c-.6.08-1.28-.64-1.93-1 2.54.48 2.76-2.26 3.84-3.85l.4 2.39.3-.06.14-2.77c.53 1.1 1 2.17 1.53 3.11s1.3 1.86 2.19 1c.34-.32.1-1.82-.21-2.6a12.74 12.74 0 0 0-1.76-2.49l2.15.42c-1.18-.92-2.32-2.37-3.75-.64-.13.15-.43.31-.54.24C55.46 36 55 38.79 54 40c-.47.57-.3 1.88-.43 2.87zm5.81-6.26a37.92 37.92 0 0 0 4.23-1.28c.4-.17.57-1.07.85-1.63-.5-.27-1.07-.86-1.5-.74a32.81 32.81 0 0 0-3.79 1.49zm-.29-5.47a4.23 4.23 0 0 0-.1-1.3 20.09 20.09 0 0 0-1.16-1.78c-.39.54-1.06 1-1.11 1.62a17.38 17.38 0 0 0 .28 3.77c0 .27.56.61.87.61a1.07 1.07 0 0 0 .83-.63 19 19 0 0 0 .38-2.3zM14.91 33.39c.89 2.35.43 3.58-1.73 4.69 1.17 2.32 1 3.41-.73 4.8.76-2.43-1.05-3.59-2.13-5.38a12.69 12.69 0 0 0 1.23.34 5.68 5.68 0 0 0 .88 0c-1.21-.78-2.3-2.24-3.72-.58-.2.23-.88.13-1.23-.07-1.43-.83-2.21-.72-3.66.78L6 37.6a23.16 23.16 0 0 0-1.94 3 5.69 5.69 0 0 0 0 2.1c.63-.18 1.49-.11 1.84-.58a27 27 0 0 0 2-3.51l.1 2.72h.38l.34-2.45c1.07 1.78 1.34 4.34 3.83 3.9-1.62 1.64-2.68 1.53-4.32-.44-1.48 1.82-2.82 2-4.41.59s-1.67-2.77-.61-4.86c-2-1.06-2.51-2.26-2-4.35.6-2.32 1.67-3 3.86-2.58.38-2.64 1.12-3.45 3.17-3.44s2.75.88 3.11 3.36c2.21-.34 3 .17 3.63 2.36-2.19-1.42-3.75.39-5.63 1.58.36.58.81 1.23 1.28 1.26 2.49.15 4.01-.93 4.28-2.87zm-8 3.33c-.18-1.22-.11-2.08-.35-2.21a18 18 0 0 0-3.62-1.57c-.38-.11-.92.45-1.38.7.26.57.42 1.48.81 1.65a42.67 42.67 0 0 0 4.54 1.42zm-.28-6.22l.25.28a24.42 24.42 0 0 0 .43 2.56c.09.32.51.75.76.73a1.26 1.26 0 0 0 1-.68 8.91 8.91 0 0 0 .39-2.56c0-1.13 0-2.67-1.29-2.63-.55.01-1.04 1.48-1.54 2.29zM28.8 63.87c-1.75-1.14-2-2.54-.76-4.72-2.1-1.12-2.61-2.36-1.95-4.65.61-2.09 1.74-2.77 3.75-2.26.42-2.74 1.27-3.59 3.47-3.47 1.8.1 2.57 1 2.77 3.17a6.66 6.66 0 0 1 2.62.65A4.77 4.77 0 0 1 40 55c.54 2 0 3.05-2 4.13 1.22 2.17 1 3.6-.76 4.71.84-2.49-1.05-3.6-2.11-5.31l2.26.41a2.38 2.38 0 0 0-.14-.32c-1.84-2.33-4 .44-6-.55 0 0-.18.1-.24.18-.56.74-1.13 1.46-1.65 2.23a3.27 3.27 0 0 0-.63 3.36zm3.2-7.79c.7-1.29 1.35-1.29 2.06 0 .38.43.79 1.24 1.15 1.21a10.89 10.89 0 0 0 3.48-.85c.44-.2.65-1.13 1-1.73-.57-.25-1.23-.85-1.68-.67A35.56 35.56 0 0 0 34 56.1l1.78-2.85-.27-.25-1.46 1.6a23.11 23.11 0 0 0 .08-3.78c-.08-.63-.78-1.14-1.19-1.71-.38.56-1 1.07-1.08 1.68a31.48 31.48 0 0 0-.05 4.08L30.4 53l-.23.24L32 56.1a28.55 28.55 0 0 0-4.35-2.1c-1.06-.32-1.6.66-1.16 1.62.86 1.9 4.51 2.2 5.51.46z"/><path d="M37.21 63.87c-1.42 1.62-2.61 1.5-4.13-.41-1.94 1.92-2.86 2-4.28.41 2.55.27 2.76-2.47 3.84-4.16l.23 2.51h.41l.16-2.56c1.09 1.87 1.32 4.49 3.85 4.24z"/></svg>