<svg id="sale" data-name="Слой 1" xmlns="http://www.w3.org/2000/svg" viewBox="0 0 66 66"><path d="M32.06 1h1l2.31 2.53-1.9 6.85c13.67 1.56 20.92 8.87 22.47 22.38l6.52-2.18 2.6 1.42v1l-2.58 2.26-5.8-1.6-6.34 15.25 2.74 3.75-.61.41-3.19-2.79-15.53 6.3 1.36 5.1 1.06-.29L34.06 65h-1l-2.27-2.58 1.88-6.79C19 54.09 11.76 46.79 10.18 33.27l-6.51 2.17L1.06 34v-1l2.51-2.29 6.88 1.89c1.49-13.71 8.88-20.88 22.34-22.52l-2.16-6.5zm5.81 40.69V24.32h-9.62v17.37zM26.25 24.63c-4.44-1.48-6.48-.11-6.47 4.14v8.42c0 4.59 2.32 5.7 6.47 4.12zM40 24.52v17c4 1.05 6.37.21 6.28-4.24-.05-2.8 0-5.61 0-8.42.1-4.17-1.85-5.69-6.28-4.34zM18.45 42.39V23.44c-2 .91-4.94 1.51-5 2.37a80.17 80.17 0 0 0 .09 14.6c.06.78 3.06 1.27 4.91 1.98zm29.22-.86c3.58 1.39 5.6-.22 6-3.82a45.45 45.45 0 0 0 0-9.32c-.41-3.85-2.52-5.41-6-3.85zm-9.51-19.08L34 11.62l-2.19.15-3.67 10.68zm0 21.1H28l4.16 10.82 2.14-.14zm.08-30.66l-1.35 1.2c2.55 2.48-.47 9.58 7.94 7.25zM21.29 44.68L28 52.93l1.22-1c-2.57-2.56.78-9.56-7.93-7.25zm8-30.72l-1.37-1-7.22 9.41c9.44 1.26 5.87-5.94 8.58-8.37zm16.22 29.85c-6.78-.62-7.19 0-8.15 10.36zM14.6 21.35l1.25 1.41c6.29.82 4.92-5.49 8-7.66l-1.79-1.74zm37 22.13c-7.15-1.24-6.18 4.54-8.6 7l1.38 1.39zm-7.72-28.85c3.17 8.34 3.17 8.34 7.46 7zM21.59 52l1.62-1.63c-2.51-2.17-1.54-7.86-9-6.68z"/></svg>