<svg id="search" data-name="Layer 1" xmlns="http://www.w3.org/2000/svg" viewBox="0 0 60 60"><title>search</title><path d="M41.43,25.43a15.41,15.41,0,0,0-4.7-11.3,15.4,15.4,0,0,0-11.3-4.7,15.41,15.41,0,0,0-11.3,4.7,15.41,15.41,0,0,0-4.7,11.3,15.41,15.41,0,0,0,4.7,11.3,15.41,15.41,0,0,0,11.3,4.7,15.4,15.4,0,0,0,11.3-4.7A15.41,15.41,0,0,0,41.43,25.43ZM59.71,55.14a4.63,4.63,0,0,1-4.57,4.57,4.24,4.24,0,0,1-3.21-1.36L39.68,46.14a24.46,24.46,0,0,1-14.25,4.43,24.71,24.71,0,0,1-9.77-2A24.62,24.62,0,0,1,2.27,35.2a25.06,25.06,0,0,1,0-19.54A24.62,24.62,0,0,1,15.66,2.27a25.06,25.06,0,0,1,19.54,0A24.62,24.62,0,0,1,48.59,15.66a24.71,24.71,0,0,1,2,9.77,24.46,24.46,0,0,1-4.43,14.25L58.39,51.93A4.37,4.37,0,0,1,59.71,55.14Z"/></svg>