<svg id="special" data-name="Слой 1" xmlns="http://www.w3.org/2000/svg" viewBox="0 0 63.9 65.7"><path d="M32 50.3L13.41 64.07c2.17-7 3.67-12.8 5.76-18.34 1.26-3.34.4-5.12-2.35-7-4.74-3.27-9.22-6.89-14.93-11.2h22.82l6.74-20.94 1-.08c1.8 5.57 3.87 11.07 5.31 16.73.88 3.44 2.48 4.42 5.88 4.24a86 86 0 0 1 17.41.84c-4.14 3.12-8.06 6.61-12.48 9.27s-5.06 5.6-3.15 10.21c2 4.82 3.19 10 5.13 16.28z"/><path d="M52.05 1.64c1 6.06 3.81 8.7 10.27 7.62-5.77 3.11-6.48 7.23-4.24 12.47-1.88-1.21-3.73-3.3-5.66-3.38s-4 1.81-7.06 3.38c2.26-5.15 2.56-9.39-3.56-12 5.99.35 9.43-1.91 10.25-8.09zM1.57 9.56c6.62.83 9.31-2 10.13-7.94 1.85 4.86 3.49 9.54 10.62 7.69-6 2.86-6.22 7.08-4.17 12.34C14 18 10.3 16.88 6.11 21.58 7 16.7 8.43 11.91 1.57 9.56z"/></svg>