<svg xmlns="http://www.w3.org/2000/svg">
    <symbol id="bars" viewBox="0 0 130 108.56">
    <path d="M1,11.28C3.82,7.21,7.69,6.16,12.57,6.19q52.43.26,104.86,0c4.88,0,8.76,1,11.57,5.09v6c-2.82,4.06-6.69,5.12-11.57,5.09q-52.42-.26-104.85,0c-4.89,0-8.74-1.05-11.58-5.09Z"/><path d="M129,57.28c-2.82,4.06-6.69,5.12-11.57,5.09q-52.43-.26-104.85,0c-4.89,0-8.76-1-11.57-5.09v-6c2.8-4.11,6.68-5.12,11.56-5.09q52.43.26,104.87,0c4.88,0,8.76,1,11.57,5.09Z"/><path d="M129,97.28c-2.82,4.06-6.69,5.12-11.57,5.09q-52.43-.26-104.85,0c-4.89,0-8.76-1-11.57-5.09v-6c2.8-4.11,6.68-5.12,11.56-5.09q52.43.26,104.87,0c4.88,0,8.76,1,11.57,5.09Z"/>
    </symbol>
    <symbol id="calendar" viewBox="0 0 59 64">
        <path d="M4.571 59.429h10.286v-10.286h-10.286v10.286zM17.143 59.429h11.429v-10.286h-11.429v10.286zM4.571 46.857h10.286v-11.429h-10.286v11.429zM17.143 46.857h11.429v-11.429h-11.429v11.429zM4.571 33.143h10.286v-10.286h-10.286v10.286zM30.857 59.429h11.429v-10.286h-11.429v10.286zM17.143 33.143h11.429v-10.286h-11.429v10.286zM44.571 59.429h10.286v-10.286h-10.286v10.286zM30.857 46.857h11.429v-11.429h-11.429v11.429zM18.286 16v-10.286q0-0.464-0.339-0.804t-0.804-0.339h-2.286q-0.464 0-0.804 0.339t-0.339 0.804v10.286q0 0.464 0.339 0.804t0.804 0.339h2.286q0.464 0 0.804-0.339t0.339-0.804zM44.571 46.857h10.286v-11.429h-10.286v11.429zM30.857 33.143h11.429v-10.286h-11.429v10.286zM44.571 33.143h10.286v-10.286h-10.286v10.286zM45.714 16v-10.286q0-0.464-0.339-0.804t-0.804-0.339h-2.286q-0.464 0-0.804 0.339t-0.339 0.804v10.286q0 0.464 0.339 0.804t0.804 0.339h2.286q0.464 0 0.804-0.339t0.339-0.804zM59.429 13.714v45.714q0 1.857-1.357 3.214t-3.214 1.357h-50.286q-1.857 0-3.214-1.357t-1.357-3.214v-45.714q0-1.857 1.357-3.214t3.214-1.357h4.571v-3.429q0-2.357 1.679-4.036t4.036-1.679h2.286q2.357 0 4.036 1.679t1.679 4.036v3.429h13.714v-3.429q0-2.357 1.679-4.036t4.036-1.679h2.286q2.357 0 4.036 1.679t1.679 4.036v3.429h4.571q1.857 0 3.214 1.357t1.357 3.214z"/>
    </symbol>
    <symbol id="cart" viewBox="0 0 59 64">
        <path d="M22.857 54.857q0 1.857-1.357 3.214t-3.214 1.357-3.214-1.357-1.357-3.214 1.357-3.214 3.214-1.357 3.214 1.357 1.357 3.214zM54.857 54.857q0 1.857-1.357 3.214t-3.214 1.357-3.214-1.357-1.357-3.214 1.357-3.214 3.214-1.357 3.214 1.357 1.357 3.214zM59.429 16v18.286q0 0.857-0.589 1.518t-1.446 0.768l-37.286 4.357q0.464 2.143 0.464 2.5 0 0.571-0.857 2.286h32.857q0.929 0 1.607 0.679t0.679 1.607-0.679 1.607-1.607 0.679h-36.571q-0.929 0-1.607-0.679t-0.679-1.607q0-0.393 0.286-1.125t0.571-1.286 0.768-1.429 0.554-1.054l-6.321-29.393h-7.286q-0.929 0-1.607-0.679t-0.679-1.607 0.679-1.607 1.607-0.679h9.143q0.571 0 1.018 0.232t0.696 0.554 0.464 0.875 0.286 0.929 0.196 1.054 0.161 0.929h42.893q0.929 0 1.607 0.679t0.679 1.607z"/>
    </symbol>
    <symbol id="children" viewBox="0 0 66 66">
        <path d="M1 33a32 32 0 1 1 31.86 32A32.1 32.1 0 0 1 1 33zm43.28-15c-.2-.72-.36-1.31-.53-1.9a38.38 38.38 0 0 0-5.9-12.55 3.51 3.51 0 0 0-2.18-1.38 30.6 30.6 0 0 0-24.29 8.64c-.37.35-.67.79-1.25 1.47a45.15 45.15 0 0 1 32 7.27c-1.78 2.41-1.4 4.79-.34 7.13-3.68 1.4-7.18 2.64-10.61 4.06-9 3.72-17.48 8.28-24.85 14.75A1.66 1.66 0 0 0 5.81 48c5 8.6 12.38 13.88 22.21 15.59a4 4 0 0 0 2.7-.62c7.85-5.63 11.9-13.62 13.79-22.84.66-3.24.89-6.57 1.32-9.91a6.33 6.33 0 0 0 6.71-1.31 51.69 51.69 0 0 1 9.14 15.79 31.67 31.67 0 0 0 1-20.73 1.64 1.64 0 0 0-2.13-1.39c-2.32.31-4.65.56-6.94.83-2.5-4.63-5.09-6.16-9.33-5.41z"/><path d="M42 23.06a4.13 4.13 0 0 1 4.27-4.18 6.85 6.85 0 0 1 6.37 6.52 4.14 4.14 0 0 1-4.19 4.07A6.77 6.77 0 0 1 42 23.06z"/>
    </symbol>
    <symbol id="cloud" viewBox="0 0 69 64">
        <path d="M68.571 41.143q0 5.679-4.018 9.696t-9.696 4.018h-38.857q-6.607 0-11.304-4.696t-4.696-11.304q0-4.714 2.536-8.625t6.679-5.839q-0.071-1-0.071-1.536 0-7.571 5.357-12.929t12.929-5.357q5.643 0 10.232 3.143t6.696 8.214q2.5-2.214 5.929-2.214 3.786 0 6.464 2.679t2.679 6.464q0 2.679-1.464 4.929 4.607 1.071 7.607 4.804t3 8.554z"/>
    </symbol>
    <symbol id="compare" viewBox="0 0 51 43.9">
        <path d="M33.2 24.5L23 14.3 33.2 4v8H51v5H33.2v7.7zM17.8 27v-7.6L28 29.6 17.8 39.8V32H0v-5z"/>
    </symbol>
    <symbol id="envelope"  viewBox="0 0 64 64">
        <path d="M64 25.357v28.357q0 2.357-1.679 4.036t-4.036 1.679h-52.571q-2.357 0-4.036-1.679t-1.679-4.036v-28.357q1.571 1.75 3.607 3.107 12.929 8.786 17.75 12.321 2.036 1.5 3.304 2.339t3.375 1.714 3.929 0.875h0.071q1.821 0 3.929-0.875t3.375-1.714 3.304-2.339q6.071-4.393 17.786-12.321 2.036-1.393 3.571-3.107zM64 14.857q0 2.821-1.75 5.393t-4.357 4.393q-13.429 9.321-16.714 11.607-0.357 0.25-1.518 1.089t-1.929 1.357-1.857 1.161-2.054 0.964-1.786 0.321h-0.071q-0.821 0-1.786-0.321t-2.054-0.964-1.857-1.161-1.929-1.357-1.518-1.089q-3.25-2.286-9.357-6.518t-7.321-5.089q-2.214-1.5-4.179-4.125t-1.964-4.875q0-2.786 1.482-4.643t4.232-1.857h52.571q2.321 0 4.018 1.679t1.696 4.036z"/>
    </symbol>
    <symbol id="facebook"  viewBox="0 0 37 64">
        <path d="M34.25 0.429v9.429h-5.607q-3.071 0-4.143 1.286t-1.071 3.857v6.75h10.464l-1.393 10.571h-9.071v27.107h-10.929v-27.107h-9.107v-10.571h9.107v-7.786q0-6.643 3.714-10.304t9.893-3.661q5.25 0 8.143 0.429z"/>
    </symbol>
    <symbol id="flash"  viewBox="0 0 32 64">
        <path d="M31.607 20.214q0.643 0.714 0.25 1.571l-19.286 41.321q-0.464 0.893-1.5 0.893-0.143 0-0.5-0.071-0.607-0.179-0.911-0.679t-0.161-1.071l7.036-28.857-14.5 3.607q-0.143 0.036-0.429 0.036-0.643 0-1.107-0.393-0.643-0.536-0.464-1.393l7.179-29.464q0.143-0.5 0.571-0.821t1-0.321h11.714q0.679 0 1.143 0.446t0.464 1.054q0 0.286-0.179 0.643l-6.107 16.536 14.143-3.5q0.286-0.071 0.429-0.071 0.679 0 1.214 0.536z"/>
    </symbol>
    <symbol id="heart"  viewBox="0 0 64 64">
        <path d="M32 59.429q-0.929 0-1.571-0.643l-22.286-21.5q-0.357-0.286-0.982-0.929t-1.982-2.339-2.429-3.482-1.911-4.321-0.839-4.929q0-7.857 4.536-12.286t12.536-4.429q2.214 0 4.518 0.768t4.286 2.071 3.411 2.446 2.714 2.429q1.286-1.286 2.714-2.429t3.411-2.446 4.286-2.071 4.518-0.768q8 0 12.536 4.429t4.536 12.286q0 7.893-8.179 16.071l-22.25 21.429q-0.643 0.643-1.571 0.643z"/>
    </symbol>
    <symbol id="home"  viewBox="0 0 59 64">
        <path d="M50.286 35.429v17.143q0 0.929-0.679 1.607t-1.607 0.679h-13.714v-13.714h-9.143v13.714h-13.714q-0.929 0-1.607-0.679t-0.679-1.607v-17.143q0-0.036 0.018-0.107t0.018-0.107l20.536-16.929 20.536 16.929q0.036 0.071 0.036 0.214zM58.25 32.964l-2.214 2.643q-0.286 0.321-0.75 0.393h-0.107q-0.464 0-0.75-0.25l-24.714-20.607-24.714 20.607q-0.429 0.286-0.857 0.25-0.464-0.071-0.75-0.393l-2.214-2.643q-0.286-0.357-0.25-0.839t0.393-0.768l25.679-21.393q1.143-0.929 2.714-0.929t2.714 0.929l8.714 7.286v-6.964q0-0.5 0.321-0.821t0.821-0.321h6.857q0.5 0 0.821 0.321t0.321 0.821v14.571l7.821 6.5q0.357 0.286 0.393 0.768t-0.25 0.839z"/>
    </symbol>
    <symbol id="logo"  viewBox="0 0 200 140">
        <path d="M100.26 138.17c-14.87-.25-26.9-6-36.68-16.88a13.41 13.41 0 0 0-6.52-3.56c-13.53-3.34-27.2-6.12-40.65-9.74-4-1.07-7.79-3.81-11-6.56C.88 97.58.88 92.8 5.41 89c3.4-2.81 7.34-5.53 11.5-6.75C28.05 79 39.4 76.46 50.73 73.93c3.41-.76 5.7-1.71 7.57-5.15 9-16.45 23.14-25.2 41.82-25.15 18.46.05 32.54 8.71 41.43 25 2 3.57 4.34 4.57 8 5.39 11.81 2.67 23.58 5.57 35.17 9 3.81 1.14 7.36 3.89 10.4 6.6 3.81 3.39 3.83 8 0 11.34-3.35 2.87-7.22 5.83-11.35 7-13.6 3.69-27.44 6.47-41.14 9.82a12.45 12.45 0 0 0-6.11 3.39c-9.78 11-21.81 16.7-36.26 17zM143 111c3-.5 5.24-.56 7.23-1.24 8.46-2.88 17.23-5.21 25.17-9.18 6.7-3.35 6.53-9.1.37-13.34-8.94-6.14-19.32-8.15-30.29-10.06C148.62 89 147.68 99.75 143 111zM54.51 77.8l-1.34-1.63c-9.29 3.43-18.92 6.17-27.77 10.51-7.71 3.78-7.49 9.86-.23 14.45 9.46 6 20.24 7.91 31.78 10C52.52 99.81 51.26 89 54.51 77.8zM121 86.68l2.27.1c1.62-2.11 4.18-4 4.62-6.38.61-3.24-1.82-5.67-5.31-5.77s-6.1 2.07-5.72 5.37c.27 2.35 2.68 4.46 4.14 6.68zM90.6 62.93c-2.13-1.12-3.33-2.26-4.45-2.18-.87.06-2.47 1.92-2.28 2.47.38 1.11 1.72 2.53 2.75 2.61s2.08-1.42 3.98-2.9zm52.52-51.35a9.9 9.9 0 0 1 10.06-9.74h.35a10.09 10.09 0 0 1 9.7 10A10.22 10.22 0 0 1 153 21.95a10.08 10.08 0 0 1-9.85-10.3z"/>
    </symbol>
    <symbol id="lowprice"  viewBox="0 0 66 60.09">
        <path d="M65 2.85c-3.69 4.8-7.41 9.58-11 14.43-.31.41-.09 1.41.16 2 7.34 18.12-3.55 36.55-22.95 38.78-13.71 1.57-27-8.44-29.68-22.33-.12-.64-.34-1.27-.51-1.91v-7a3.8 3.8 0 0 0 .39-.82C5.36 5.44 27.14-3.65 44.73 7.84A3.67 3.67 0 0 0 47.6 8c5-1.85 9.88-3.89 14.83-5.8A11.64 11.64 0 0 1 65 1.85zm-54.61 8.8a26.5 26.5 0 0 0-7.93 17.92h11.4l2.26-14.07zM14 31.48H2.47c.54 7.1 3 13 8 17.78l5.73-3.8zm33 17.76a26.12 26.12 0 0 0 8-17.86H43.54l-2.21 14zm-4-29.3l4.68 2.76L61.44 4.65l-.31-.42L35 14.65c2.21 2.41 4.27 2.59 6.62.94a31.33 31.33 0 0 1 4.18-2.22c1.12-.56 2.27-1.05 3.41-1.57l.57.7zm-27.48 9.68h12.33V18.81l-10.4-2.28zm12.36 1.9H15.4l2 13 10.49-2.3zm1.71-.12v10.75l10.5 2.29 1.88-13zm0-1.81h12.16L41.14 23l-.65-.11-1.81 2.59-1-.35v-5c.05-1.88-.95-2.54-2.65-2.34s-3.58.51-5.44.79zm25.73.09l-2.64-10.86c-.83 1-1.16 1.36-1.46 1.75-3.11 4-3.11 4-7.56 1.62-.27-.15-.58-.24-1.13-.46l.74 7.94zM27.86 4.19c-5.58 1.6-7.62 5.86-9.75 10.85l9.75 2.19zm-9.41 41.66c1.46 5.92 5.62 10.38 9.35 10.44V43.78zm20.9 0l-9.73-2v12.9c5.49-1.55 7.54-5.75 9.73-10.88zM37.46 12c-.82-3.73-4.46-7.15-7.85-7.41v12.33l4-.53-1.65-1.88zM22.2 5.14l-.13-.49L11 10.34 16.6 14zm-.2 51.1l.14-.51-5.58-8.94-5.51 3.82zm13.22-.5l.15.51 11-5.68-5.56-3.74zm8.6-46.16l.18-.8-8.57-3.92-.24.5 4.34 6zm-4.24 12.17l4.36-5.12c-5.09 1.82-5.09 1.82-4.36 5.12z"/>
    </symbol>
    <symbol id="original"  viewBox="0 0 66 66">
        <path d="M18.51 32.1c-5.13-.87-7.51-4.47-7-10.21a15.19 15.19 0 0 1 2.95-8.09c2.3-3 5.32-3.74 8.46-2.07l1 .53a2.37 2.37 0 0 0 .09-.59C23 5.73 26.24 2.13 31 1.21a10 10 0 0 1 7.19 1.2c2.87 1.69 4.18 4.43 3.89 8.15 0 .52-.06 1-.09 1.58a23.59 23.59 0 0 1 3.33-1.2A5.64 5.64 0 0 1 50.88 13a14.65 14.65 0 0 1 3.41 12.81c-.73 4-3.23 5.83-6.76 6.25.63.9 1.2 1.61 1.68 2.41a8.38 8.38 0 0 1 .84 6.69C48.79 46 43.92 50.08 39.6 50c-3.21-.06-5.18-2.15-6.52-5.55-.26.45-.46.74-.62 1.06-1.71 3.55-4.09 5-7.51 4.33-4.08-.85-7.08-3.55-8.76-8a8.33 8.33 0 0 1 1.12-8.19c.35-.45.69-.91 1.2-1.55zm13.7-1.37a17.61 17.61 0 0 0-1.92-1.21 1.3 1.3 0 0 0-1.15-.05 27.35 27.35 0 0 0-8.22 9.34 14.48 14.48 0 0 0-1.35 4.4c-.39 2.91 1.51 4.62 3.85 3.5a8.79 8.79 0 0 0 2.83-2.22c3.23-3.82 4.75-8.7 5.96-13.76zm1.67.28c1.16 4.77 2.64 9.64 5.87 13.45a9.34 9.34 0 0 0 3.25 2.4c1.75.78 3.35-.43 3.39-2.6a11.7 11.7 0 0 0-.82-4.36c-1.41-3.59-3.88-6.19-6.49-8.6-1.55-1.43-3.08-3.35-5.2-.3zm3.42-4c4.58.14 9-.09 13-2.74 2.16-1.42 3.22-3.45 2.8-5.08-.45-1.81-2.21-2.73-4.82-2.48-3.67.36-6.74 2.42-9.75 4.69-1.09.82-2.07 1.59-1.3 3.42a7.05 7.05 0 0 1 .07 2.23zm-8.75 0c.16-1.26.36-2.39.43-3.53a1.58 1.58 0 0 0-.43-1.11C25.71 20 22.7 17.82 19.19 17a9.13 9.13 0 0 0-4 0c-2.35.54-3.14 3.05-1.6 5.15a10.18 10.18 0 0 0 3.19 2.8c3.75 2.05 7.8 2.28 11.77 2.05zm2.37-6.43h4.16c1.28-4.57 2.22-9.25 1.26-14.15-.52-2.68-1.88-4.35-3.34-4.33s-2.8 1.67-3.33 4.4c-.96 4.9-.03 9.58 1.25 14.1zm2.68 10.2l-.47-.4c-.27.41-.77.81-.78 1.22q-.11 4.7 0 9.4a14.08 14.08 0 0 0 .51 2.55c1.41-4.23 1.23-8.48.75-12.74zm-4.14-2c-.59-1.41-.6-1.46-1.52-1.2a34.89 34.89 0 0 0-4.32 1.43c-1.55.68-3 1.6-4.52 2.42l.2.58c3.59.06 6.84-1.44 10.17-3.18zm7-.5l.2.57c3.21 1.63 6.43 3.2 10.08 3a1.33 1.33 0 0 0-.59-.75c-2.79-1.22-5.58-2.44-8.41-3.55-.31-.09-.84.52-1.28.79zm-5.88-7.12c-1.73-3.27-3.47-6.29-6.11-8.39l-.5.41 5.25 9.47zm11.06-8.53a26 26 0 0 0-6.21 8.54l1.08 1.16c2.42-2.59 4.72-6.91 5.14-9.65z"/><path d="M53.57 42.87c-1.74-1.4-1.9-2.48-.73-4.8-2.17-1.11-2.62-2.32-1.73-4.69.27 2 2 3.19 4.41 2.85.45-.06.82-.82 1.37-1.41-2.18-1.07-3.75-2.82-5.89-1.37.66-2.23 1.54-2.79 3.53-2.25.64-2.82 1.41-3.58 3.52-3.47 1.82.09 2.53.95 2.85 3.45 2.17-.48 3.18.16 3.81 2.41s.09 3.42-1.92 4.52c1.1 2.13.88 3.64-.73 5s-2.91 1.07-4-.52a9.3 9.3 0 0 1-2.64 1.25c-.6.08-1.28-.64-1.93-1 2.54.48 2.76-2.26 3.84-3.85l.4 2.39.3-.06.14-2.77c.53 1.1 1 2.17 1.53 3.11s1.3 1.86 2.19 1c.34-.32.1-1.82-.21-2.6a12.74 12.74 0 0 0-1.76-2.49l2.15.42c-1.18-.92-2.32-2.37-3.75-.64-.13.15-.43.31-.54.24C55.46 36 55 38.79 54 40c-.47.57-.3 1.88-.43 2.87zm5.81-6.26a37.92 37.92 0 0 0 4.23-1.28c.4-.17.57-1.07.85-1.63-.5-.27-1.07-.86-1.5-.74a32.81 32.81 0 0 0-3.79 1.49zm-.29-5.47a4.23 4.23 0 0 0-.1-1.3 20.09 20.09 0 0 0-1.16-1.78c-.39.54-1.06 1-1.11 1.62a17.38 17.38 0 0 0 .28 3.77c0 .27.56.61.87.61a1.07 1.07 0 0 0 .83-.63 19 19 0 0 0 .38-2.3zM14.91 33.39c.89 2.35.43 3.58-1.73 4.69 1.17 2.32 1 3.41-.73 4.8.76-2.43-1.05-3.59-2.13-5.38a12.69 12.69 0 0 0 1.23.34 5.68 5.68 0 0 0 .88 0c-1.21-.78-2.3-2.24-3.72-.58-.2.23-.88.13-1.23-.07-1.43-.83-2.21-.72-3.66.78L6 37.6a23.16 23.16 0 0 0-1.94 3 5.69 5.69 0 0 0 0 2.1c.63-.18 1.49-.11 1.84-.58a27 27 0 0 0 2-3.51l.1 2.72h.38l.34-2.45c1.07 1.78 1.34 4.34 3.83 3.9-1.62 1.64-2.68 1.53-4.32-.44-1.48 1.82-2.82 2-4.41.59s-1.67-2.77-.61-4.86c-2-1.06-2.51-2.26-2-4.35.6-2.32 1.67-3 3.86-2.58.38-2.64 1.12-3.45 3.17-3.44s2.75.88 3.11 3.36c2.21-.34 3 .17 3.63 2.36-2.19-1.42-3.75.39-5.63 1.58.36.58.81 1.23 1.28 1.26 2.49.15 4.01-.93 4.28-2.87zm-8 3.33c-.18-1.22-.11-2.08-.35-2.21a18 18 0 0 0-3.62-1.57c-.38-.11-.92.45-1.38.7.26.57.42 1.48.81 1.65a42.67 42.67 0 0 0 4.54 1.42zm-.28-6.22l.25.28a24.42 24.42 0 0 0 .43 2.56c.09.32.51.75.76.73a1.26 1.26 0 0 0 1-.68 8.91 8.91 0 0 0 .39-2.56c0-1.13 0-2.67-1.29-2.63-.55.01-1.04 1.48-1.54 2.29zM28.8 63.87c-1.75-1.14-2-2.54-.76-4.72-2.1-1.12-2.61-2.36-1.95-4.65.61-2.09 1.74-2.77 3.75-2.26.42-2.74 1.27-3.59 3.47-3.47 1.8.1 2.57 1 2.77 3.17a6.66 6.66 0 0 1 2.62.65A4.77 4.77 0 0 1 40 55c.54 2 0 3.05-2 4.13 1.22 2.17 1 3.6-.76 4.71.84-2.49-1.05-3.6-2.11-5.31l2.26.41a2.38 2.38 0 0 0-.14-.32c-1.84-2.33-4 .44-6-.55 0 0-.18.1-.24.18-.56.74-1.13 1.46-1.65 2.23a3.27 3.27 0 0 0-.63 3.36zm3.2-7.79c.7-1.29 1.35-1.29 2.06 0 .38.43.79 1.24 1.15 1.21a10.89 10.89 0 0 0 3.48-.85c.44-.2.65-1.13 1-1.73-.57-.25-1.23-.85-1.68-.67A35.56 35.56 0 0 0 34 56.1l1.78-2.85-.27-.25-1.46 1.6a23.11 23.11 0 0 0 .08-3.78c-.08-.63-.78-1.14-1.19-1.71-.38.56-1 1.07-1.08 1.68a31.48 31.48 0 0 0-.05 4.08L30.4 53l-.23.24L32 56.1a28.55 28.55 0 0 0-4.35-2.1c-1.06-.32-1.6.66-1.16 1.62.86 1.9 4.51 2.2 5.51.46z"/><path d="M37.21 63.87c-1.42 1.62-2.61 1.5-4.13-.41-1.94 1.92-2.86 2-4.28.41 2.55.27 2.76-2.47 3.84-4.16l.23 2.51h.41l.16-2.56c1.09 1.87 1.32 4.49 3.85 4.24z"/>
    </symbol>
    <symbol id="phone"  viewBox="0 0 50 64">
        <path d="M50.286 44.286q0 0.964-0.357 2.518t-0.75 2.446q-0.75 1.786-4.357 3.786-3.357 1.821-6.643 1.821-0.964 0-1.893-0.125t-2.054-0.446-1.679-0.518-1.982-0.732-1.75-0.643q-3.5-1.25-6.25-2.964-4.536-2.821-9.429-7.714t-7.714-9.429q-1.714-2.75-2.964-6.25-0.107-0.321-0.643-1.75t-0.732-1.982-0.518-1.679-0.446-2.054-0.125-1.893q0-3.286 1.821-6.643 2-3.607 3.786-4.357 0.893-0.393 2.446-0.75t2.518-0.357q0.5 0 0.75 0.107 0.643 0.214 1.893 2.714 0.393 0.679 1.071 1.929t1.25 2.268 1.107 1.911q0.107 0.143 0.625 0.893t0.768 1.268 0.25 1.018q0 0.714-1.018 1.786t-2.214 1.964-2.214 1.893-1.018 1.643q0 0.321 0.179 0.804t0.304 0.732 0.5 0.857 0.411 0.679q2.714 4.893 6.214 8.393t8.393 6.214q0.071 0.036 0.679 0.411t0.857 0.5 0.732 0.304 0.804 0.179q0.643 0 1.643-1.018t1.893-2.214 1.964-2.214 1.786-1.018q0.5 0 1.018 0.25t1.268 0.768 0.893 0.625q0.893 0.536 1.911 1.107t2.268 1.25 1.929 1.071q2.5 1.25 2.714 1.893 0.107 0.25 0.107 0.75z"/>
    </symbol>
    <symbol id="sale"  viewBox="0 0 66 66">
        <path d="M32.06 1h1l2.31 2.53-1.9 6.85c13.67 1.56 20.92 8.87 22.47 22.38l6.52-2.18 2.6 1.42v1l-2.58 2.26-5.8-1.6-6.34 15.25 2.74 3.75-.61.41-3.19-2.79-15.53 6.3 1.36 5.1 1.06-.29L34.06 65h-1l-2.27-2.58 1.88-6.79C19 54.09 11.76 46.79 10.18 33.27l-6.51 2.17L1.06 34v-1l2.51-2.29 6.88 1.89c1.49-13.71 8.88-20.88 22.34-22.52l-2.16-6.5zm5.81 40.69V24.32h-9.62v17.37zM26.25 24.63c-4.44-1.48-6.48-.11-6.47 4.14v8.42c0 4.59 2.32 5.7 6.47 4.12zM40 24.52v17c4 1.05 6.37.21 6.28-4.24-.05-2.8 0-5.61 0-8.42.1-4.17-1.85-5.69-6.28-4.34zM18.45 42.39V23.44c-2 .91-4.94 1.51-5 2.37a80.17 80.17 0 0 0 .09 14.6c.06.78 3.06 1.27 4.91 1.98zm29.22-.86c3.58 1.39 5.6-.22 6-3.82a45.45 45.45 0 0 0 0-9.32c-.41-3.85-2.52-5.41-6-3.85zm-9.51-19.08L34 11.62l-2.19.15-3.67 10.68zm0 21.1H28l4.16 10.82 2.14-.14zm.08-30.66l-1.35 1.2c2.55 2.48-.47 9.58 7.94 7.25zM21.29 44.68L28 52.93l1.22-1c-2.57-2.56.78-9.56-7.93-7.25zm8-30.72l-1.37-1-7.22 9.41c9.44 1.26 5.87-5.94 8.58-8.37zm16.22 29.85c-6.78-.62-7.19 0-8.15 10.36zM14.6 21.35l1.25 1.41c6.29.82 4.92-5.49 8-7.66l-1.79-1.74zm37 22.13c-7.15-1.24-6.18 4.54-8.6 7l1.38 1.39zm-7.72-28.85c3.17 8.34 3.17 8.34 7.46 7zM21.59 52l1.62-1.63c-2.51-2.17-1.54-7.86-9-6.68z"/>
    </symbol>
    <symbol id="search"  viewBox="0 0 60 60">
        <path d="M41.43,25.43a15.41,15.41,0,0,0-4.7-11.3,15.4,15.4,0,0,0-11.3-4.7,15.41,15.41,0,0,0-11.3,4.7,15.41,15.41,0,0,0-4.7,11.3,15.41,15.41,0,0,0,4.7,11.3,15.41,15.41,0,0,0,11.3,4.7,15.4,15.4,0,0,0,11.3-4.7A15.41,15.41,0,0,0,41.43,25.43ZM59.71,55.14a4.63,4.63,0,0,1-4.57,4.57,4.24,4.24,0,0,1-3.21-1.36L39.68,46.14a24.46,24.46,0,0,1-14.25,4.43,24.71,24.71,0,0,1-9.77-2A24.62,24.62,0,0,1,2.27,35.2a25.06,25.06,0,0,1,0-19.54A24.62,24.62,0,0,1,15.66,2.27a25.06,25.06,0,0,1,19.54,0A24.62,24.62,0,0,1,48.59,15.66a24.71,24.71,0,0,1,2,9.77,24.46,24.46,0,0,1-4.43,14.25L58.39,51.93A4.37,4.37,0,0,1,59.71,55.14Z"/>
    </symbol>
    <symbol id="signin"  viewBox="0 0 64 64">
        <path d="M42.286 32q0 0.929-0.679 1.607l-19.429 19.429q-0.679 0.679-1.607 0.679t-1.607-0.679-0.679-1.607v-10.286h-16q-0.929 0-1.607-0.679t-0.679-1.607v-13.714q0-0.929 0.679-1.607t1.607-0.679h16v-10.286q0-0.929 0.679-1.607t1.607-0.679 1.607 0.679l19.429 19.429q0.679 0.679 0.679 1.607zM54.857 19.429v25.143q0 4.25-3.018 7.268t-7.268 3.018h-11.429q-0.464 0-0.804-0.339t-0.339-0.804q0-0.143-0.036-0.714t-0.018-0.946 0.107-0.839 0.357-0.696 0.732-0.232h11.429q2.357 0 4.036-1.679t1.679-4.036v-25.143q0-2.357-1.679-4.036t-4.036-1.679h-11.143t-0.411-0.036-0.411-0.107-0.286-0.196-0.25-0.321-0.071-0.482q0-0.143-0.036-0.714t-0.018-0.946 0.107-0.839 0.357-0.696 0.732-0.232h11.429q4.25 0 7.268 3.018t3.018 7.268z"/>
    </symbol>
    <symbol id="special"  viewBox="0 0 63.9 65.7">
        <path d="M32 50.3L13.41 64.07c2.17-7 3.67-12.8 5.76-18.34 1.26-3.34.4-5.12-2.35-7-4.74-3.27-9.22-6.89-14.93-11.2h22.82l6.74-20.94 1-.08c1.8 5.57 3.87 11.07 5.31 16.73.88 3.44 2.48 4.42 5.88 4.24a86 86 0 0 1 17.41.84c-4.14 3.12-8.06 6.61-12.48 9.27s-5.06 5.6-3.15 10.21c2 4.82 3.19 10 5.13 16.28z"/><path d="M52.05 1.64c1 6.06 3.81 8.7 10.27 7.62-5.77 3.11-6.48 7.23-4.24 12.47-1.88-1.21-3.73-3.3-5.66-3.38s-4 1.81-7.06 3.38c2.26-5.15 2.56-9.39-3.56-12 5.99.35 9.43-1.91 10.25-8.09zM1.57 9.56c6.62.83 9.31-2 10.13-7.94 1.85 4.86 3.49 9.54 10.62 7.69-6 2.86-6.22 7.08-4.17 12.34C14 18 10.3 16.88 6.11 21.58 7 16.7 8.43 11.91 1.57 9.56z"/>
    </symbol>
    <symbol id="star"  viewBox="0 0 59 64">
        <path d="M59.429 23.107q0 0.786-0.929 1.714l-12.964 12.643 3.071 17.857q0.036 0.25 0.036 0.714 0 0.75-0.375 1.268t-1.089 0.518q-0.679 0-1.429-0.429l-16.036-8.429-16.036 8.429q-0.786 0.429-1.429 0.429-0.75 0-1.125-0.518t-0.375-1.268q0-0.214 0.071-0.714l3.071-17.857-13-12.643q-0.893-0.964-0.893-1.714 0-1.321 2-1.643l17.929-2.607 8.036-16.25q0.679-1.464 1.75-1.464t1.75 1.464l8.036 16.25 17.929 2.607q2 0.321 2 1.643z"/>
    </symbol>
    <symbol id="stock"  viewBox="0 0 76.18 66">
        <path d="M56.09 65h-36v-5.9l8-1-.14-1.63c-4.71 0-9.46.39-14.11-.15-2.7-.32-5.18-2.17-7.75-3.32V14c2.59-1.12 5.12-2.94 7.8-3.2 5.27-.51 10.62 0 15.93-.23a11 11 0 0 0 4.94-1.7C38.94 6.38 43 3.64 47.09 1h7l-.6 9.65c2.58 0 5 .09 7.46 0 3.54-.15 6.89.09 9.14 3.37V53c-2.14 2.93-4.91 3.86-8.59 3.54-4.43-.39-8.91-.09-13.37-.09v1.72l8 1zm10.63-25L68 38.87c0-7.15.2-14.31-.16-21.45-.08-1.57-2-4.19-3.31-4.33-4.06-.44-9.18-1.38-12.15.54-4.92 3.19-8.48 8.46-12 12.24 6.57 2.3 12.76 4.39 18.88 6.68 1 .36 1.5 1.72 2.33 2.53 1.64 1.67 3.41 3.28 5.13 4.92zm-35.67 5.49h37.37c-1.24-1.87-1.91-3.9-2.78-4a33.27 33.27 0 0 0-6.69.33c-.14-2.31.66-5.63-.63-7.06-3.61-4-7-.57-10.28 2.2-.11-1.09-.37-1.71-.17-2 1.85-2.34 1.73-4.81-1.11-5.47-1.95-.45-5.23.33-6.38 1.78-3.51 4.44-6.27 9.44-9.33 14.22zm36.67 2.8H8.34c-.4 3.56.18 5.94 4.22 5.93q25.2-.06 50.39 0c3.78-.01 5.68-1.49 4.77-5.93zM24 23.91l6.84 7.87L47 15l-7.77-7.38zM11.91 43.46l-1.22-1.2 4.65-12.91H8.47v16.19H25v-6.73zm17.74-28.94l-.37-1.66c-5.64 0-11.3-.26-16.9.17-1.48.11-3.55 2.15-4 3.7-.68 2.34-.18 5-.18 7.56l1.16.71C14 17.44 20.94 14.29 29.65 14.52zm22.92-12l-11 3 7.71 9zM10.75 26.74C19 28.25 21 21.05 26.59 17.25c-8.47.67-9.8 1.51-15.84 9.49zm11.64 34.54v1h31.42v-1zM27.87 44c4.1-5 10.46-7.17 8.94-15.47-3.44 5.12-10.35 6.81-8.94 15.47zm-7.31-19.28c-2.42 6.27 2.85 7 4.53 9.65.34.53 2.2.08 3.56.08zm-2.29 5.94l-1.73.79c.8 1.65 1.26 3.67 2.5 4.85 1 .9 2.91.76 5.11 1.23z"/><path d="M42.49 18.34c-3.12 2.18-4.8 4.26-6.46 4.23-1.41 0-3.83-2.42-3.89-3.85s2.17-4 3.57-4.13c1.66-.15 3.5 1.8 6.78 3.75z"/>
    </symbol>
    <symbol id="twitter"  viewBox="0 0 64 64">
        <path d="M45.714 21.786q-2 0.893-4.321 1.214 2.429-1.429 3.321-4.179-2.321 1.357-4.786 1.821-2.179-2.357-5.464-2.357-3.107 0-5.304 2.196t-2.196 5.304q0 1.036 0.179 1.714-4.607-0.25-8.643-2.321t-6.857-5.536q-1.036 1.786-1.036 3.786 0 4.071 3.25 6.25-1.679-0.036-3.571-0.929v0.071q0 2.679 1.786 4.768t4.393 2.589q-1.036 0.286-1.821 0.286-0.464 0-1.393-0.143 0.75 2.25 2.661 3.714t4.339 1.5q-4.143 3.214-9.321 3.214-0.929 0-1.786-0.107 5.286 3.357 11.5 3.357 4 0 7.5-1.268t6-3.393 4.304-4.893 2.679-5.786 0.875-6.018q0-0.643-0.036-0.964 2.25-1.607 3.75-3.893zM54.857 14.857v34.286q0 4.25-3.018 7.268t-7.268 3.018h-34.286q-4.25 0-7.268-3.018t-3.018-7.268v-34.286q0-4.25 3.018-7.268t7.268-3.018h34.286q4.25 0 7.268 3.018t3.018 7.268z"/>
    </symbol>
    <symbol id="vk"  viewBox="0 0 69 64">
        <path d="M68.464 18.571q0.821 2.286-5.357 10.5-0.857 1.143-2.321 3.036-1.429 1.821-1.964 2.571t-1.089 1.768-0.429 1.5 0.464 1.232 1.161 1.536 2.036 1.893q0.143 0.071 0.179 0.143 5.036 4.679 6.821 7.893 0.107 0.179 0.232 0.446t0.25 0.946-0.018 1.214-0.893 0.982-2.107 0.446l-9.143 0.143q-0.857 0.179-2-0.179t-1.857-0.786l-0.714-0.429q-1.071-0.75-2.5-2.286t-2.446-2.768-2.179-2.071-2.018-0.554q-0.107 0.036-0.286 0.125t-0.607 0.518-0.768 1.054-0.607 1.857-0.232 2.768q0 0.536-0.125 0.982t-0.268 0.661l-0.143 0.179q-0.643 0.679-1.893 0.786h-4.107q-2.536 0.143-5.214-0.589t-4.696-1.893-3.679-2.357-2.518-2.054l-0.893-0.857q-0.357-0.357-0.982-1.071t-2.554-3.25-3.786-5.393-4.375-7.536-4.661-9.714q-0.214-0.571-0.214-0.964t0.107-0.571l0.143-0.214q0.536-0.679 2.036-0.679l9.786-0.071q0.429 0.071 0.821 0.232t0.571 0.304l0.179 0.107q0.571 0.393 0.857 1.143 0.714 1.786 1.643 3.696t1.464 2.911l0.571 1.036q1.036 2.143 2 3.714t1.732 2.446 1.482 1.375 1.214 0.5 0.964-0.179q0.071-0.036 0.179-0.179t0.429-0.786 0.482-1.679 0.339-2.893 0-4.464q-0.071-1.429-0.321-2.607t-0.5-1.643l-0.214-0.429q-0.893-1.214-3.036-1.536-0.464-0.071 0.179-0.857 0.571-0.679 1.357-1.071 1.893-0.929 8.536-0.857 2.929 0.036 4.821 0.464 0.714 0.179 1.196 0.482t0.732 0.857 0.375 1.143 0.125 1.625-0.036 1.964-0.089 2.518-0.054 2.946q0 0.393-0.036 1.5t-0.018 1.714 0.125 1.446 0.411 1.393 0.804 0.875q0.286 0.071 0.607 0.143t0.929-0.393 1.357-1.232 1.857-2.393 2.429-3.839q2.143-3.714 3.821-8.036 0.143-0.357 0.357-0.625t0.393-0.375l0.143-0.107 0.179-0.089t0.464-0.107 0.714-0.018l10.286-0.071q1.393-0.179 2.286 0.089t1.107 0.589z"/>
    </symbol>
</svg>