<svg id="stock" data-name="Layer 1" xmlns="http://www.w3.org/2000/svg" viewBox="0 0 76.18 66"><path d="M56.09 65h-36v-5.9l8-1-.14-1.63c-4.71 0-9.46.39-14.11-.15-2.7-.32-5.18-2.17-7.75-3.32V14c2.59-1.12 5.12-2.94 7.8-3.2 5.27-.51 10.62 0 15.93-.23a11 11 0 0 0 4.94-1.7C38.94 6.38 43 3.64 47.09 1h7l-.6 9.65c2.58 0 5 .09 7.46 0 3.54-.15 6.89.09 9.14 3.37V53c-2.14 2.93-4.91 3.86-8.59 3.54-4.43-.39-8.91-.09-13.37-.09v1.72l8 1zm10.63-25L68 38.87c0-7.15.2-14.31-.16-21.45-.08-1.57-2-4.19-3.31-4.33-4.06-.44-9.18-1.38-12.15.54-4.92 3.19-8.48 8.46-12 12.24 6.57 2.3 12.76 4.39 18.88 6.68 1 .36 1.5 1.72 2.33 2.53 1.64 1.67 3.41 3.28 5.13 4.92zm-35.67 5.49h37.37c-1.24-1.87-1.91-3.9-2.78-4a33.27 33.27 0 0 0-6.69.33c-.14-2.31.66-5.63-.63-7.06-3.61-4-7-.57-10.28 2.2-.11-1.09-.37-1.71-.17-2 1.85-2.34 1.73-4.81-1.11-5.47-1.95-.45-5.23.33-6.38 1.78-3.51 4.44-6.27 9.44-9.33 14.22zm36.67 2.8H8.34c-.4 3.56.18 5.94 4.22 5.93q25.2-.06 50.39 0c3.78-.01 5.68-1.49 4.77-5.93zM24 23.91l6.84 7.87L47 15l-7.77-7.38zM11.91 43.46l-1.22-1.2 4.65-12.91H8.47v16.19H25v-6.73zm17.74-28.94l-.37-1.66c-5.64 0-11.3-.26-16.9.17-1.48.11-3.55 2.15-4 3.7-.68 2.34-.18 5-.18 7.56l1.16.71C14 17.44 20.94 14.29 29.65 14.52zm22.92-12l-11 3 7.71 9zM10.75 26.74C19 28.25 21 21.05 26.59 17.25c-8.47.67-9.8 1.51-15.84 9.49zm11.64 34.54v1h31.42v-1zM27.87 44c4.1-5 10.46-7.17 8.94-15.47-3.44 5.12-10.35 6.81-8.94 15.47zm-7.31-19.28c-2.42 6.27 2.85 7 4.53 9.65.34.53 2.2.08 3.56.08zm-2.29 5.94l-1.73.79c.8 1.65 1.26 3.67 2.5 4.85 1 .9 2.91.76 5.11 1.23z"/><path d="M42.49 18.34c-3.12 2.18-4.8 4.26-6.46 4.23-1.41 0-3.83-2.42-3.89-3.85s2.17-4 3.57-4.13c1.66-.15 3.5 1.8 6.78 3.75z"/></svg>