<?xml version="1.0" standalone="no"?>
<!DOCTYPE svg PUBLIC "-//W3C//DTD SVG 20010904//EN"
 "http://www.w3.org/TR/2001/REC-SVG-20010904/DTD/svg10.dtd">
<svg version="1.0" xmlns="http://www.w3.org/2000/svg"
 width="260.000000pt" height="260.000000pt" viewBox="0 0 260.000000 260.000000"
 preserveAspectRatio="xMidYMid meet">
<metadata>
Created by potrace 1.11, written by Peter Selinger 2001-2013
</metadata>
<g transform="translate(0.000000,260.000000) scale(0.100000,-0.100000)"
fill="#000000" stroke="none">
<path d="M1885 2163 c-56 -75 -61 -128 -15 -191 53 -73 144 -80 212 -14 62 59
62 131 1 200 -29 31 -33 32 -104 32 -68 -1 -76 -3 -94 -27z"/>
<path d="M1173 1650 c-161 -24 -324 -141 -413 -297 -44 -76 -34 -73 -340 -138
-41 -9 -84 -20 -95 -25 -11 -5 -49 -17 -84 -25 -62 -16 -134 -57 -194 -110
-23 -21 -27 -32 -27 -78 l0 -55 73 -54 c78 -59 109 -72 235 -100 85 -19 217
-49 287 -66 22 -6 66 -16 98 -22 52 -10 68 -20 139 -85 86 -80 151 -121 238
-150 30 -11 59 -23 64 -27 14 -11 263 -10 284 1 9 6 44 19 76 31 33 11 72 30
87 40 15 11 31 20 37 20 5 0 46 34 91 75 91 84 96 87 196 105 39 7 75 15 80
19 6 3 46 13 90 23 176 36 271 59 287 68 10 6 23 10 29 10 14 0 85 50 132 92
30 28 37 41 37 71 0 45 -23 73 -105 132 -60 43 -87 52 -295 101 -36 8 -74 19
-85 24 -11 5 -49 14 -85 20 -36 7 -72 14 -80 18 -8 3 -17 6 -20 6 -27 7 -56
36 -82 84 -18 31 -64 89 -103 128 -66 67 -93 84 -230 145 -57 25 -215 35 -322
19z m-34 -267 c-8 -9 -16 -10 -22 -4 -13 13 0 31 19 24 11 -4 12 -8 3 -20z
m498 -180 c9 -12 9 -21 1 -37 -13 -25 -49 -66 -58 -66 -4 0 -19 18 -34 39 -22
32 -26 43 -17 59 6 11 16 23 23 26 22 9 72 -3 85 -21z m-958 -78 c-13 -87 0
-239 26 -301 14 -33 13 -34 -8 -29 -12 3 -56 12 -97 20 -82 17 -82 17 -123 33
-16 7 -32 12 -37 12 -16 0 -110 53 -135 76 -32 30 -41 68 -22 97 16 25 120 79
185 97 22 5 53 17 69 25 15 8 34 15 41 15 8 0 28 6 45 14 37 16 61 24 65 21 1
-1 -3 -37 -9 -80z m1329 46 c41 -7 86 -19 100 -27 15 -8 33 -14 41 -14 23 0
150 -79 161 -100 29 -54 -9 -104 -97 -131 -24 -7 -43 -16 -43 -21 0 -4 -6 -8
-14 -8 -8 0 -55 -14 -105 -30 -50 -17 -110 -34 -134 -39 l-44 -8 20 56 c16 44
20 82 21 176 1 66 -3 133 -7 148 -7 25 -6 27 10 19 10 -5 51 -15 91 -21z"/>
</g>
</svg>
